<svg width="27" height="42" viewBox="0 0 27 42" fill="none" xmlns="http://www.w3.org/2000/svg">
<path fill-rule="evenodd" clip-rule="evenodd" d="M11.839 3H15.8806C19.5364 3 22.5 5.96359 22.5 9.61936L22.5 13.45C22.5 17.1227 19.5227 20.1 15.85 20.1H12.525L9.2373 20.0441C7.8877 20.0212 6.54148 20.1865 5.23752 20.5352L4.77189 20.6598C4.22654 20.8057 3.73783 20.2865 3.91634 19.751C4.30256 18.5923 4.48624 17.3758 4.45934 16.1548L4.33484 10.5042C4.33484 6.35974 7.69458 3 11.839 3ZM9.5 13C10.0523 13 10.5 12.5523 10.5 12C10.5 11.4477 10.0523 11 9.5 11C8.94772 11 8.5 11.4477 8.5 12C8.5 12.5523 8.94772 13 9.5 13ZM14.5 12C14.5 12.5523 14.0523 13 13.5 13C12.9477 13 12.5 12.5523 12.5 12C12.5 11.4477 12.9477 11 13.5 11C14.0523 11 14.5 11.4477 14.5 12ZM17.5 13C18.0523 13 18.5 12.5523 18.5 12C18.5 11.4477 18.0523 11 17.5 11C16.9477 11 16.5 11.4477 16.5 12C16.5 12.5523 16.9477 13 17.5 13Z" fill="#8E8E8E" style="fill:#8E8E8E;fill:color(display-p3 0.5583 0.5583 0.5583);fill-opacity:1;"/>
<path d="M4.48406 39.1992C2.18719 39.1992 0.75164 37.5 0.75164 34.7812V34.7695C0.75164 32.0449 2.18133 30.3457 4.4782 30.3457C6.25945 30.3457 7.64812 31.4648 7.90008 33.0879L7.89422 33.0996H6.83367L6.82781 33.0879C6.54656 32.0039 5.64422 31.3184 4.4782 31.3184C2.85516 31.3184 1.83562 32.6543 1.83562 34.7695V34.7812C1.83562 36.8965 2.85516 38.2266 4.48406 38.2266C5.6618 38.2266 6.55828 37.623 6.82195 36.6504L6.83367 36.6387H7.90008V36.6504C7.61883 38.1973 6.28289 39.1992 4.48406 39.1992ZM9.7193 39V30.1758H10.7388V33.6328H10.8326C11.149 32.9648 11.7408 32.5723 12.6724 32.5723C14.0904 32.5723 14.8814 33.4102 14.8814 34.9102V39H13.8619V35.1562C13.8619 34.0195 13.3931 33.4746 12.3853 33.4746C11.3775 33.4746 10.7388 34.1543 10.7388 35.2617V39H9.7193ZM18.5815 39.1113C17.3803 39.1113 16.4721 38.3848 16.4721 37.2363V37.2246C16.4721 36.0996 17.3041 35.4492 18.7748 35.3613L20.5854 35.25V34.6758C20.5854 33.8965 20.1108 33.4746 19.1674 33.4746C18.4116 33.4746 17.9135 33.7559 17.7495 34.248L17.7436 34.2656H16.7241L16.7299 34.2305C16.894 33.2402 17.8549 32.5723 19.2026 32.5723C20.7436 32.5723 21.6049 33.3633 21.6049 34.6758V39H20.5854V38.0684H20.4916C20.0932 38.7422 19.4311 39.1113 18.5815 39.1113ZM17.5151 37.2129C17.5151 37.8516 18.06 38.2266 18.7924 38.2266C19.8295 38.2266 20.5854 37.5469 20.5854 36.6445V36.0703L18.8979 36.1758C17.937 36.2344 17.5151 36.5742 17.5151 37.2012V37.2129ZM25.8323 39.0469C24.5316 39.0469 23.9866 38.5664 23.9866 37.3594V33.5273H22.9905V32.6836H23.9866V31.0488H25.0413V32.6836H26.4241V33.5273H25.0413V37.1016C25.0413 37.8457 25.2991 38.1445 25.9554 38.1445C26.137 38.1445 26.2366 38.1387 26.4241 38.1211V38.9883C26.2249 39.0234 26.0316 39.0469 25.8323 39.0469Z" fill="#8E8E8E" style="fill:#8E8E8E;fill:color(display-p3 0.5583 0.5583 0.5583);fill-opacity:1;"/>
<circle cx="21.5" cy="6" r="4" fill="#DA2E31" style="fill:#DA2E31;fill:color(display-p3 0.8549 0.1804 0.1922);fill-opacity:1;"/>
</svg>
