<svg width="36" height="42" viewBox="0 0 36 42" fill="none" xmlns="http://www.w3.org/2000/svg">
<path d="M27 10.8329V19.5001C27 19.8979 26.842 20.2795 26.5607 20.5608C26.2794 20.8421 25.8978 21.0001 25.5 21.0001H21.75C21.3522 21.0001 20.9706 20.8421 20.6893 20.5608C20.408 20.2795 20.25 19.8979 20.25 19.5001V15.7501C20.25 15.5512 20.171 15.3604 20.0303 15.2198C19.8897 15.0791 19.6989 15.0001 19.5 15.0001H16.5C16.3011 15.0001 16.1103 15.0791 15.9697 15.2198C15.829 15.3604 15.75 15.5512 15.75 15.7501V19.5001C15.75 19.8979 15.592 20.2795 15.3107 20.5608C15.0294 20.8421 14.6478 21.0001 14.25 21.0001H10.5C10.1022 21.0001 9.72064 20.8421 9.43934 20.5608C9.15804 20.2795 9 19.8979 9 19.5001V10.8329C8.99997 10.6253 9.04303 10.42 9.12646 10.2299C9.20989 10.0398 9.33187 9.86907 9.48469 9.72855L16.9847 2.6523L16.995 2.64199C17.2711 2.39086 17.631 2.25171 18.0042 2.25171C18.3775 2.25171 18.7373 2.39086 19.0134 2.64199C19.0166 2.64566 19.0201 2.6491 19.0238 2.6523L26.5238 9.72855C26.675 9.86981 26.7954 10.0409 26.8774 10.2309C26.9594 10.421 27.0011 10.6259 27 10.8329Z" fill="#3D872A" style="fill:#3D872A;fill:color(display-p3 0.2392 0.5294 0.1647);fill-opacity:1;"/>
<path d="M8.59734 39H6.82781V35.4668H3.01922V39H1.24969V30.5449H3.01922V33.9551H6.82781V30.5449H8.59734V39ZM13.4634 39.1406C11.4771 39.1406 10.2818 37.8809 10.2818 35.7656C10.2818 33.6738 11.4947 32.3965 13.4634 32.3965C15.4322 32.3965 16.6451 33.668 16.6451 35.7656C16.6451 37.8809 15.4498 39.1406 13.4634 39.1406ZM13.4634 37.7461C14.3716 37.7461 14.8931 37.0195 14.8931 35.7656C14.8931 34.5234 14.3658 33.791 13.4634 33.791C12.5552 33.791 12.0337 34.5234 12.0337 35.7656C12.0337 37.0254 12.5494 37.7461 13.4634 37.7461ZM18.1596 39V32.5371H19.812V33.5918H19.9174C20.1811 32.8535 20.8549 32.3965 21.7045 32.3965C22.6127 32.3965 23.2338 32.8418 23.4916 33.5918H23.5971C23.8959 32.8711 24.6401 32.3965 25.5424 32.3965C26.8315 32.3965 27.6342 33.2344 27.6342 34.5645V39H25.9291V35.0156C25.9291 34.248 25.5717 33.8672 24.851 33.8672C24.1596 33.8672 23.7143 34.3594 23.7143 35.0449V39H22.0737V34.9453C22.0737 34.2598 21.6752 33.8672 21.0073 33.8672C20.3393 33.8672 19.8647 34.3887 19.8647 35.1094V39H18.1596ZM32.2073 33.7031C31.4163 33.7031 30.8597 34.2539 30.8011 35.0918H33.555C33.5198 34.2363 33.0042 33.7031 32.2073 33.7031ZM33.5902 37.1602H35.178C34.9202 38.3789 33.807 39.1406 32.2249 39.1406C30.2562 39.1406 29.096 37.8984 29.096 35.8008C29.096 33.6973 30.2796 32.3965 32.2015 32.3965C34.1058 32.3965 35.2308 33.6094 35.2308 35.6602V36.1816H30.7952V36.2695C30.8187 37.2305 31.3812 37.8281 32.2718 37.8281C32.9456 37.8281 33.4085 37.5879 33.5902 37.1602Z" fill="#3D872A" style="fill:#3D872A;fill:color(display-p3 0.2392 0.5294 0.1647);fill-opacity:1;"/>
</svg>
