<svg width="59" height="26" viewBox="0 0 59 26" fill="none" xmlns="http://www.w3.org/2000/svg">
<rect x="0.5" y="1" width="58" height="24" rx="12" fill="#FAFAFA" style="fill:#FAFAFA;fill:color(display-p3 0.9804 0.9804 0.9804);fill-opacity:1;"/>
<rect x="0.5" y="1" width="58" height="24" rx="12" stroke="#EDEDED" style="stroke:#EDEDED;stroke:color(display-p3 0.9299 0.9299 0.9299);stroke-opacity:1;"/>
<g clip-path="url(#clip0_1_1061)">
<rect x="8" y="7.28571" width="16" height="11.4286" rx="2.28571" fill="white" style="fill:white;fill-opacity:1;"/>
<path fill-rule="evenodd" clip-rule="evenodd" d="M8 7.28571H24V13.3809H8V7.28571Z" fill="#F93939" style="fill:#F93939;fill:color(display-p3 0.9750 0.2234 0.2234);fill-opacity:1;"/>
</g>
<path d="M34.942 14.73H32.42V17.408H31.1135V14.73H28.6045V13.5405H31.1135V10.8755H32.42V13.5405H34.942V14.73ZM39.064 12.5135L38.739 12.9165C38.921 12.8255 39.116 12.7562 39.324 12.7085C39.5363 12.6565 39.7638 12.6305 40.0065 12.6305C40.3618 12.6305 40.7063 12.689 41.04 12.806C41.378 12.923 41.6748 13.1007 41.9305 13.339C42.1862 13.573 42.392 13.8655 42.548 14.2165C42.704 14.5675 42.782 14.977 42.782 15.445C42.782 15.8827 42.7018 16.2943 42.5415 16.68C42.3812 17.0613 42.1558 17.395 41.8655 17.681C41.5752 17.967 41.2242 18.1923 40.8125 18.357C40.4052 18.5217 39.9545 18.604 39.4605 18.604C38.9578 18.604 38.5072 18.5238 38.1085 18.3635C37.7098 18.2032 37.3697 17.98 37.088 17.694C36.8063 17.4037 36.5897 17.057 36.438 16.654C36.2907 16.2467 36.217 15.796 36.217 15.302C36.217 14.86 36.3058 14.4072 36.4835 13.9435C36.6655 13.4755 36.945 12.9902 37.322 12.4875L39.5645 9.478C39.6425 9.374 39.7552 9.28517 39.9025 9.2115C40.0542 9.13783 40.2275 9.101 40.4225 9.101H41.8525L39.064 12.5135ZM39.428 17.291C39.6837 17.291 39.9177 17.2477 40.13 17.161C40.3467 17.0743 40.5308 16.953 40.6825 16.797C40.8385 16.641 40.9598 16.459 41.0465 16.251C41.1332 16.0387 41.1765 15.809 41.1765 15.562C41.1765 15.2933 41.1353 15.0528 41.053 14.8405C40.9707 14.6238 40.8537 14.4418 40.702 14.2945C40.5503 14.1428 40.3683 14.028 40.156 13.95C39.9437 13.872 39.7097 13.833 39.454 13.833C39.1983 13.833 38.9665 13.8763 38.7585 13.963C38.5505 14.0497 38.3728 14.171 38.2255 14.327C38.0782 14.4787 37.9633 14.6607 37.881 14.873C37.7987 15.081 37.7575 15.3063 37.7575 15.549C37.7575 15.809 37.7922 16.0473 37.8615 16.264C37.9352 16.4763 38.0413 16.6583 38.18 16.81C38.323 16.9617 38.4985 17.0808 38.7065 17.1675C38.9145 17.2498 39.155 17.291 39.428 17.291ZM49.7185 17.005C49.8919 17.005 50.0284 17.0548 50.128 17.1545C50.232 17.2498 50.284 17.3777 50.284 17.538V18.5H43.836V17.967C43.836 17.8587 43.8577 17.746 43.901 17.629C43.9487 17.5077 44.0224 17.3993 44.122 17.304L46.9755 14.444C47.2139 14.2013 47.4262 13.9695 47.6125 13.7485C47.8032 13.5275 47.9614 13.3087 48.087 13.092C48.2127 12.8753 48.308 12.6565 48.373 12.4355C48.4424 12.2102 48.477 11.974 48.477 11.727C48.477 11.5017 48.4445 11.3045 48.3795 11.1355C48.3145 10.9622 48.2214 10.817 48.1 10.7C47.983 10.583 47.84 10.4963 47.671 10.44C47.5064 10.3793 47.32 10.349 47.112 10.349C46.9214 10.349 46.7437 10.3772 46.579 10.4335C46.4187 10.4855 46.2757 10.5613 46.15 10.661C46.0244 10.7563 45.9182 10.869 45.8315 10.999C45.7449 11.129 45.6799 11.272 45.6365 11.428C45.5629 11.6273 45.4675 11.7595 45.3505 11.8245C45.2335 11.8895 45.0645 11.9047 44.8435 11.87L43.9985 11.7205C44.0635 11.2698 44.1892 10.8755 44.3755 10.5375C44.5619 10.1952 44.7937 9.91133 45.071 9.686C45.3527 9.45633 45.6734 9.28517 46.033 9.1725C46.397 9.0555 46.787 8.997 47.203 8.997C47.6364 8.997 48.0329 9.062 48.3925 9.192C48.7522 9.31767 49.0599 9.4975 49.3155 9.7315C49.5712 9.9655 49.7705 10.2472 49.9135 10.5765C50.0565 10.9058 50.128 11.272 50.128 11.675C50.128 12.0217 50.076 12.3423 49.972 12.637C49.8724 12.9317 49.7359 13.2133 49.5625 13.482C49.3935 13.7507 49.1942 14.0107 48.9645 14.262C48.7349 14.5133 48.4944 14.769 48.243 15.029L46.124 17.1935C46.3277 17.1328 46.5292 17.0873 46.7285 17.057C46.9322 17.0223 47.125 17.005 47.307 17.005H49.7185Z" fill="#1D1D1D" style="fill:#1D1D1D;fill:color(display-p3 0.1137 0.1137 0.1137);fill-opacity:1;"/>
<defs>
<clipPath id="clip0_1_1061">
<rect x="8" y="7.28571" width="16" height="11.4286" rx="2.28571" fill="white" style="fill:white;fill-opacity:1;"/>
</clipPath>
</defs>
</svg>
