<svg width="40" height="42" viewBox="0 0 40 42" fill="none" xmlns="http://www.w3.org/2000/svg">
<path fill-rule="evenodd" clip-rule="evenodd" d="M11.6728 4.86413C11 6.09621 11 7.73081 11 11V13C11 16.2692 11 17.9038 11.6728 19.1359C12.1781 20.0613 12.9387 20.8219 13.8641 21.3272C15.0962 22 16.7308 22 20 22C23.2692 22 24.9038 22 26.1359 21.3272C27.0613 20.8219 27.8219 20.0613 28.3272 19.1359C29 17.9038 29 16.2692 29 13V11C29 7.73081 29 6.09621 28.3272 4.86413C27.8219 3.93873 27.0613 3.17807 26.1359 2.67277C24.9038 2 23.2692 2 20 2C16.7308 2 15.0962 2 13.8641 2.67277C12.9387 3.17807 12.1781 3.93873 11.6728 4.86413ZM23.3 17.4C23.6866 17.4 24 17.0866 24 16.7C24 16.3134 23.6866 16 23.3 16L15.7 16C15.3134 16 15 16.3134 15 16.7C15 17.0866 15.3134 17.4 15.7 17.4L23.3 17.4ZM24 12.7C24 13.0866 23.6866 13.4 23.3 13.4L15.7 13.4C15.3134 13.4 15 13.0866 15 12.7C15 12.3134 15.3134 12 15.7 12L23.3 12C23.6866 12 24 12.3134 24 12.7ZM19.3 9.40002C19.6866 9.40002 20 9.08662 20 8.70002C20 8.31343 19.6866 8.00002 19.3 8.00002L15.7 8.00002C15.3134 8.00002 15 8.31343 15 8.70003C15 9.08662 15.3134 9.40002 15.7 9.40002L19.3 9.40002Z" fill="#8E8E8E" style="fill:#8E8E8E;fill:color(display-p3 0.5583 0.5583 0.5583);fill-opacity:1;"/>
<path d="M5.02227 39.1992C2.59649 39.1992 1.14336 37.4766 1.14336 34.7754V34.7637C1.14336 32.0508 2.63164 30.3457 5.02227 30.3457C7.42461 30.3457 8.90117 32.0566 8.90117 34.7637V34.7754C8.90117 37.4707 7.43633 39.1992 5.02227 39.1992ZM5.02227 38.2266C6.75664 38.2266 7.82305 36.8672 7.82305 34.7754V34.7637C7.82305 32.6543 6.75078 31.3184 5.02227 31.3184C3.29961 31.3184 2.22149 32.6543 2.22149 34.7637V34.7754C2.22149 36.8672 3.26445 38.2266 5.02227 38.2266ZM10.7204 39V32.6836H11.7399V33.6211H11.8337C12.0739 32.959 12.6657 32.5723 13.5212 32.5723C13.7145 32.5723 13.9313 32.5957 14.0309 32.6133V33.6035C13.82 33.5684 13.6266 33.5449 13.404 33.5449C12.4313 33.5449 11.7399 34.1602 11.7399 35.0859V39H10.7204ZM17.567 39.1113C15.9673 39.1113 14.9185 37.8164 14.9185 35.8477V35.8359C14.9185 33.8555 15.9615 32.5723 17.567 32.5723C18.4341 32.5723 19.19 33.0059 19.5357 33.6797H19.6295V30.1758H20.649V39H19.6295V37.9922H19.5357C19.149 38.6953 18.4459 39.1113 17.567 39.1113ZM17.8013 38.209C18.9498 38.209 19.6529 37.3066 19.6529 35.8477V35.8359C19.6529 34.377 18.9498 33.4746 17.8013 33.4746C16.647 33.4746 15.9615 34.3652 15.9615 35.8359V35.8477C15.9615 37.3184 16.647 38.209 17.8013 38.209ZM25.3041 39.1113C23.4995 39.1113 22.4096 37.8457 22.4096 35.8652V35.8594C22.4096 33.9082 23.5229 32.5723 25.2397 32.5723C26.9565 32.5723 27.9995 33.8496 27.9995 35.7363V36.1348H23.4526C23.4819 37.4414 24.2026 38.2031 25.3276 38.2031C26.183 38.2031 26.7104 37.7988 26.8803 37.418L26.9038 37.3652H27.9233L27.9116 37.4121C27.6948 38.2676 26.7924 39.1113 25.3041 39.1113ZM25.2338 33.4805C24.2963 33.4805 23.5815 34.1191 23.4702 35.3203H26.9623C26.8569 34.0723 26.1655 33.4805 25.2338 33.4805ZM29.7015 39V32.6836H30.721V33.6211H30.8148C31.055 32.959 31.6468 32.5723 32.5023 32.5723C32.6956 32.5723 32.9124 32.5957 33.012 32.6133V33.6035C32.8011 33.5684 32.6077 33.5449 32.3851 33.5449C31.4124 33.5449 30.721 34.1602 30.721 35.0859V39H29.7015ZM36.4426 39.1113C35.0363 39.1113 34.0695 38.4316 33.9523 37.3887H34.9953C35.1652 37.916 35.6691 38.2617 36.4777 38.2617C37.3273 38.2617 37.9309 37.8574 37.9309 37.2832V37.2715C37.9309 36.8438 37.6086 36.5449 36.8293 36.3574L35.8508 36.123C34.6672 35.8418 34.134 35.3262 34.134 34.418V34.4121C34.134 33.3633 35.1418 32.5723 36.4836 32.5723C37.8078 32.5723 38.7277 33.2344 38.8684 34.2656H37.8664C37.7316 33.7676 37.2395 33.4219 36.4777 33.4219C35.7277 33.4219 35.177 33.8086 35.177 34.3652V34.377C35.177 34.8047 35.4934 35.0742 36.2375 35.2559L37.2102 35.4902C38.3996 35.7773 38.9738 36.293 38.9738 37.1953V37.207C38.9738 38.332 37.8781 39.1113 36.4426 39.1113Z" fill="#8E8E8E" style="fill:#8E8E8E;fill:color(display-p3 0.5583 0.5583 0.5583);fill-opacity:1;"/>
</svg>
