<svg width="44" height="42" viewBox="0 0 44 42" fill="none" xmlns="http://www.w3.org/2000/svg">
<path fill-rule="evenodd" clip-rule="evenodd" d="M23.0085 2.81877C22.4208 2.34166 21.5792 2.34166 20.9915 2.81877L19.2699 4.21649C19.0287 4.41232 18.7357 4.53368 18.4267 4.56577L16.221 4.7948C15.4681 4.87298 14.873 5.46808 14.7948 6.221L14.5657 8.4267C14.5337 8.73573 14.4123 9.02873 14.2165 9.26993L12.8187 10.9915C12.3416 11.5792 12.3416 12.4208 12.8187 13.0085L14.2165 14.7301C14.4123 14.9713 14.5337 15.2643 14.5657 15.5733L14.7948 17.779C14.873 18.532 15.4681 19.1271 16.221 19.2052L18.4267 19.4343C18.7357 19.4664 19.0287 19.5877 19.2699 19.7836L20.9915 21.1813C21.5792 21.6584 22.4208 21.6584 23.0085 21.1813L24.7301 19.7836C24.9713 19.5877 25.2643 19.4664 25.5733 19.4343L27.779 19.2052C28.5319 19.1271 29.127 18.532 29.2052 17.779L29.4342 15.5733C29.4663 15.2643 29.5877 14.9713 29.7835 14.7301L31.1813 13.0085C31.6584 12.4208 31.6584 11.5792 31.1813 10.9915L29.7835 9.26993C29.5877 9.02873 29.4663 8.73573 29.4342 8.4267L29.2052 6.221C29.127 5.46808 28.5319 4.87298 27.779 4.7948L25.5733 4.56577C25.2643 4.53368 24.9713 4.41232 24.7301 4.21649L23.0085 2.81877ZM19.495 15.495L25.495 9.495C25.7683 9.22163 25.7683 8.77841 25.495 8.50505C25.2216 8.23168 24.7784 8.23168 24.505 8.50505L18.505 14.505C18.2317 14.7784 18.2317 15.2216 18.505 15.495C18.7784 15.7684 19.2216 15.7684 19.495 15.495ZM24.191 15C24.191 14.5582 24.5491 14.2 24.991 14.2H25.009C25.4508 14.2 25.809 14.5582 25.809 15C25.809 15.4419 25.4508 15.8 25.009 15.8H24.991C24.5491 15.8 24.191 15.4419 24.191 15ZM18.991 8.20002C18.5492 8.20002 18.191 8.55819 18.191 9.00002C18.191 9.44185 18.5492 9.80002 18.991 9.80002H19.009C19.4508 9.80002 19.809 9.44185 19.809 9.00002C19.809 8.55819 19.4508 8.20002 19.009 8.20002H18.991Z" fill="#8E8E8E" style="fill:#8E8E8E;fill:color(display-p3 0.5583 0.5583 0.5583);fill-opacity:1;"/>
<path d="M1.31524 39V30.5449H4.50274C6.09063 30.5449 7.21563 31.6406 7.21563 33.2461V33.2578C7.21563 34.8633 6.09063 35.9824 4.50274 35.9824H2.36992V39H1.31524ZM4.2332 31.4824H2.36992V35.0449H4.2332C5.44024 35.0449 6.1375 34.3828 6.1375 33.2695V33.2578C6.1375 32.1445 5.44024 31.4824 4.2332 31.4824ZM8.93524 39V32.6836H9.95477V33.6211H10.0485C10.2888 32.959 10.8805 32.5723 11.736 32.5723C11.9294 32.5723 12.1462 32.5957 12.2458 32.6133V33.6035C12.0348 33.5684 11.8415 33.5449 11.6188 33.5449C10.6462 33.5449 9.95477 34.1602 9.95477 35.0859V39H8.93524ZM16.0455 39.1113C14.2466 39.1113 13.1334 37.8691 13.1334 35.8477V35.8359C13.1334 33.8086 14.2466 32.5723 16.0455 32.5723C17.8443 32.5723 18.9576 33.8086 18.9576 35.8359V35.8477C18.9576 37.8691 17.8443 39.1113 16.0455 39.1113ZM16.0455 38.209C17.2408 38.209 17.9146 37.3359 17.9146 35.8477V35.8359C17.9146 34.3418 17.2408 33.4746 16.0455 33.4746C14.8502 33.4746 14.1763 34.3418 14.1763 35.8359V35.8477C14.1763 37.3359 14.8502 38.209 16.0455 38.209ZM20.6596 39V32.6836H21.6791V33.6445H21.7729C22.0541 32.9648 22.6518 32.5723 23.478 32.5723C24.3334 32.5723 24.9311 33.0234 25.2241 33.6797H25.3178C25.6577 33.0117 26.3784 32.5723 27.2514 32.5723C28.5405 32.5723 29.2612 33.3105 29.2612 34.6348V39H28.2416V34.8691C28.2416 33.9375 27.8139 33.4746 26.9233 33.4746C26.0444 33.4746 25.4643 34.1367 25.4643 34.9395V39H24.4448V34.7109C24.4448 33.9609 23.9291 33.4746 23.1323 33.4746C22.3061 33.4746 21.6791 34.1953 21.6791 35.0859V39H20.6596ZM33.8167 39.1113C32.0179 39.1113 30.9046 37.8691 30.9046 35.8477V35.8359C30.9046 33.8086 32.0179 32.5723 33.8167 32.5723C35.6155 32.5723 36.7288 33.8086 36.7288 35.8359V35.8477C36.7288 37.8691 35.6155 39.1113 33.8167 39.1113ZM33.8167 38.209C35.012 38.209 35.6859 37.3359 35.6859 35.8477V35.8359C35.6859 34.3418 35.012 33.4746 33.8167 33.4746C32.6214 33.4746 31.9476 34.3418 31.9476 35.8359V35.8477C31.9476 37.3359 32.6214 38.209 33.8167 38.209ZM40.5988 39.1113C39.1926 39.1113 38.2258 38.4316 38.1086 37.3887H39.1516C39.3215 37.916 39.8254 38.2617 40.634 38.2617C41.4836 38.2617 42.0871 37.8574 42.0871 37.2832V37.2715C42.0871 36.8438 41.7648 36.5449 40.9855 36.3574L40.007 36.123C38.8234 35.8418 38.2902 35.3262 38.2902 34.418V34.4121C38.2902 33.3633 39.298 32.5723 40.6398 32.5723C41.9641 32.5723 42.884 33.2344 43.0246 34.2656H42.0227C41.8879 33.7676 41.3957 33.4219 40.634 33.4219C39.884 33.4219 39.3332 33.8086 39.3332 34.3652V34.377C39.3332 34.8047 39.6496 35.0742 40.3937 35.2559L41.3664 35.4902C42.5559 35.7773 43.1301 36.293 43.1301 37.1953V37.207C43.1301 38.332 42.0344 39.1113 40.5988 39.1113Z" fill="#8E8E8E" style="fill:#8E8E8E;fill:color(display-p3 0.5583 0.5583 0.5583);fill-opacity:1;"/>
</svg>
